<?xml version="1.0" encoding="UTF-8" standalone="no"?> <svg height="512" viewBox="0 0 50 60" width="512" xmlns="http://www.w3.org/2000/svg"><g id="074---ID-Card" fill="url(#a)" ><path id="Shape" d="m45 60c2.7600532-.0033061 4.9966939-2.2399468 5-5v-36c-.0033061-2.7600532-2.2399468-4.9966939-5-5h-4.139c-1.0019693-7.99736077-7.8011165-13.99781506-15.861-13.99781506s-14.8590307 6.00045429-15.861 13.99781506h-4.139c-2.76005315.0033061-4.99669388 2.2399468-5 5v36c.00330612 2.7600532 2.23994685 4.9966939 5 5zm-20-58c5.9443265-.00522074 11.2427026 3.74705157 13.2111063 9.3560115 1.9684037 5.6089599.1768497 11.8493663-4.4671063 15.5599885-3.008-.9-3.4-.206-5.595-2.1-.0859533-.0713674-.1369726-.1763214-.14-.288-.010157-.5986658.0982588-1.1934236.319-1.75.071-.049.132-.1.2-.154 1.1981004 1.644093 3.1666731 2.5446184 5.194 2.376.4097717-.0454203.7496673-.3376669.856-.736 1.172-4.392-.348-6.611-1.765-7.689.352-.675.279-1.092.279-2.543.0030109-.8448819-.4362714-1.6297481-1.158-2.069.4611596-1.8017624.2269539-3.71111016-.656-5.348-.8006718-1.49690279-2.3078154-2.48370505-4-2.619-.7892806-.02870543-1.577096.0882465-2.324.345-.7486943-.25618424-1.538288-.37179241-2.329-.341-2.777 0-5.672 3.1-4.661 7.963-.7251065.4386536-1.1669475 1.2255404-1.164 2.073 0 1.3-.093 1.919.33 2.645-1.358 1.105-2.766 3.319-1.63 7.587.1061989.3980217.4456088.6901921.855.736 1.9879329.1642687 3.92214-.6978092 5.129-2.286.029.02.053.043.082.063.2258857.5538591.3364714 1.1479593.325 1.746-.0050082.1121299-.0568972.2169965-.143.289-2.156 1.856-2.579 1.225-5.517 2.081-4.6304726-3.7179122-6.4089964-9.9541574-4.4362266-15.5552579 1.9727698-5.60110047 7.266866-9.34629037 13.2052266-9.3417421zm-6.243 15.981c.0866014 1.2160951.528568 2.379952 1.271 3.347-.6182305.9534243-1.640275 1.5698956-2.772 1.672-.479-2.411.044-4.121 1.501-5.019zm4.3 8.35c.5189461-.4451209.8234178-1.0904408.837-1.774.0226852-1.0040393-.1968411-1.9987677-.64-2.9-.361-.718-2.593-1.153-2.54-4.7.0197382-.2772883-.0768388-.5502791-.266557-.7534673s-.4554539-.3182343-.733443-.3175327h-.486c-.1138376.0013454-.2234339-.0431448-.3041228-.1234574-.0806888-.0803127-.1256907-.1896999-.1248772-.3035426 0-1.287-.119-1.749.344-1.843.3878186.0312262.7585414-.1653239.9503272-.503845.1917857-.3385212.1698125-.7575493-.0563272-1.074155-1.016-3.847.983-6.038 2.588-6.038.5744508-.04435682 1.1515477.04037973 1.689.248.3725926.2931227.8974074.2931227 1.27 0 .5374523-.20762027 1.1145492-.29235682 1.689-.248.974222.14069013 1.8204702.74334404 2.272 1.618.6980466 1.36640802.8134733 2.9571325.32 4.41-.2127978.311018-.2353578.7144541-.0585623 1.047258s.5237199.5399587.9005623.537742c.516.06.385.538.385 1.85.0011807.1705249-.1001491.3250825-.257.392-.106.044-.146.035-.657.035-.2794891-.0008736-.5465898.1152569-.7365726.3202483s-.2855085.4801348-.2634274.7587517c.057 3.528-2.193 3.991-2.542 4.694-.4308778.9001571-.6465563 1.8881702-.63 2.886.0082153.6864978.3117448 1.3361894.833 1.783 1.2464279 1.1967379 2.86233 1.9347006 4.583 2.093-4.0356748 2.1056173-8.8469129 2.1003869-12.878-.014 1.6969683-.1571556 3.2887796-.8912947 4.51-2.08zm8.093-8.443c1.591.867 2.172 2.609 1.675 5.111-1.1860477-.1098757-2.2472693-.7823919-2.853-1.808.6927963-.9694791 1.0998716-2.1137935 1.175-3.303zm-29.15 37.112v-36c0-1.6568542 1.34314575-3 3-3h4c.00394235 4.9631041 2.3155732 9.6421701 6.255 12.661.0911486.1035415.2028508.1869776.328.245 4.8621343 3.5397071 11.2985505 4.0538985 16.6609901 1.3310105 5.3624395-2.722888 8.745031-8.2228808 8.7560099-14.2370105h4c1.6568542 0 3 1.3431458 3 3v36c0 1.6568542-1.3431458 3-3 3h-40c-1.65685425 0-3-1.3431458-3-3z"/><path id="Shape" d="m7 38h6c.5522847 0 1-.4477153 1-1s-.4477153-1-1-1h-6c-.55228475 0-1 .4477153-1 1s.44771525 1 1 1z"/><path id="Shape" d="m17 38h26c.5522847 0 1-.4477153 1-1s-.4477153-1-1-1h-26c-.5522847 0-1 .4477153-1 1s.4477153 1 1 1z"/><path id="Shape" d="m7 42h36c.5522847 0 1-.4477153 1-1s-.4477153-1-1-1h-36c-.55228475 0-1 .4477153-1 1s.44771525 1 1 1z"/><path id="Shape" d="m10 55h9c2.209139 0 4-1.790861 4-4s-1.790861-4-4-4h-9c-2.209139 0-4 1.790861-4 4s1.790861 4 4 4zm0-6h9c1.1045695 0 2 .8954305 2 2s-.8954305 2-2 2h-9c-1.1045695 0-2-.8954305-2-2s.8954305-2 2-2z"/><path id="Shape" d="m40 47h-9c-2.209139 0-4 1.790861-4 4s1.790861 4 4 4h9c2.209139 0 4-1.790861 4-4s-1.790861-4-4-4zm0 6h-9c-1.1045695 0-2-.8954305-2-2s.8954305-2 2-2h9c1.1045695 0 2 .8954305 2 2s-.8954305 2-2 2z" /></g>
    <defs>
        <linearGradient id="a" x1="4.51" y1="32" x2="62.79" y2="32" gradientUnits="userSpaceOnUse">
            <stop stop-color="#02fcf8" />
            <stop offset="1" stop-color="#45b05e" />
        </linearGradient>
    </defs></svg>