<?xml version="1.0" encoding="UTF-8" standalone="no"?> <svg width="64" height="64" viewBox="0 0 64 64" fill="none" xmlns="http://www.w3.org/2000/svg">
<g id="abcde" fill="url(#a)">
<path d="M59.7502 53.47C59.3015 53.0082 58.7653 52.6404 58.173 52.3881C57.5807 52.1357 56.944 52.0038 56.3002 52H50.4202C52.6648 51.0446 54.5796 49.4512 55.9271 47.4176C57.2745 45.384 57.9954 42.9995 58.0002 40.56V31.21C58.0002 30.9448 57.8948 30.6904 57.7073 30.5029C57.5197 30.3154 57.2654 30.21 57.0002 30.21H46.5402V24.14H50.6102C50.8754 24.14 51.1297 24.0346 51.3173 23.8471C51.5048 23.6596 51.6102 23.4052 51.6102 23.14V20.21H53.0002C53.2654 20.21 53.5197 20.1046 53.7073 19.9171C53.8948 19.7296 54.0002 19.4752 54.0002 19.21V12.41C53.9975 9.91513 53.0053 7.52319 51.2411 5.75905C49.477 3.99491 47.085 3.00265 44.5902 3H11.5902C9.35975 2.99901 7.21619 3.86459 5.61186 5.41407C4.00754 6.96355 3.06795 9.07573 2.9914 11.3048C2.91485 13.5339 3.70732 15.7056 5.20156 17.3615C6.69581 19.0174 8.77494 20.028 11.0002 20.18C10.9286 24.7252 10.4399 29.2542 9.54017 33.71C8.56039 38.4796 7.1065 43.1394 5.20017 47.62C3.18017 51.8 0.570171 60.49 7.64017 61H56.5002C60.2902 61.12 62.5302 56.15 59.7502 53.47ZM56.0002 40.56C56.0434 41.9575 55.8055 43.3495 55.3006 44.6533C54.7957 45.9572 54.034 47.1463 53.0607 48.1501C52.0875 49.154 50.9225 49.9521 49.6349 50.4972C48.3473 51.0422 46.9634 51.3231 45.5652 51.3231C44.167 51.3231 42.783 51.0422 41.4954 50.4972C40.2079 49.9521 39.0429 49.154 38.0696 48.1501C37.0964 47.1463 36.3347 45.9572 35.8297 44.6533C35.3248 43.3495 35.0869 41.9575 35.1302 40.56V32.21H56.0002V40.56ZM44.5402 30.21H34.1002C33.835 30.21 33.5806 30.3154 33.3931 30.5029C33.2055 30.6904 33.1002 30.9448 33.1002 31.21V40.56C33.102 42.9976 33.8194 45.381 35.1633 47.4146C36.5072 49.4482 38.4185 51.0426 40.6602 52H23.4302C22.3693 52 21.3519 51.5786 20.6017 50.8284C19.8516 50.0783 19.4302 49.0609 19.4302 48V45C19.4517 36.0704 22.3558 27.3863 27.7102 20.24H39.4602V23.17C39.4602 23.4352 39.5655 23.6896 39.7531 23.8771C39.9406 24.0646 40.195 24.17 40.4602 24.17H44.5402V30.21ZM49.6102 22.14H41.4602V20.21H49.6102V22.14ZM5.00017 11.61C5.00017 9.85865 5.69521 8.17889 6.93266 6.93956C8.17011 5.70023 9.84882 5.00265 11.6002 5H44.6002C46.5637 5.00265 48.4459 5.78451 49.8334 7.17387C51.2209 8.56323 52.0002 10.4465 52.0002 12.41V18.21H11.6002C9.85056 18.2074 8.17336 17.5112 6.93619 16.274C5.69902 15.0368 5.00282 13.3596 5.00017 11.61V11.61ZM58.2602 58.27C58.0298 58.5022 57.7555 58.6862 57.4534 58.8115C57.1513 58.9369 56.8273 59.0009 56.5002 59H7.64017C2.72017 58.59 5.86017 51.07 7.04017 48.4C8.99968 43.7973 10.4938 39.0102 11.5002 34.11C12.4329 29.5336 12.935 24.88 13.0002 20.21H25.2402C20.1749 27.4855 17.4534 36.1349 17.4402 45V48C17.4402 49.5913 18.0723 51.1174 19.1975 52.2426C20.3227 53.3679 21.8489 54 23.4402 54H56.3002C58.5002 53.94 59.9402 56.68 58.2602 58.27Z" />
<path d="M43.5103 12.6099H45.5103C45.7755 12.6099 46.0298 12.5045 46.2174 12.317C46.4049 12.1294 46.5103 11.8751 46.5103 11.6099C46.5103 11.3446 46.4049 11.0903 46.2174 10.9028C46.0298 10.7152 45.7755 10.6099 45.5103 10.6099H43.5103C43.245 10.6099 42.9907 10.7152 42.8032 10.9028C42.6156 11.0903 42.5103 11.3446 42.5103 11.6099C42.5103 11.8751 42.6156 12.1294 42.8032 12.317C42.9907 12.5045 43.245 12.6099 43.5103 12.6099Z" />
<path d="M36.75 12.6099H38.75C39.0152 12.6099 39.2696 12.5045 39.4571 12.317C39.6446 12.1294 39.75 11.8751 39.75 11.6099C39.75 11.3446 39.6446 11.0903 39.4571 10.9028C39.2696 10.7152 39.0152 10.6099 38.75 10.6099H36.75C36.4848 10.6099 36.2304 10.7152 36.0429 10.9028C35.8554 11.0903 35.75 11.3446 35.75 11.6099C35.75 11.8751 35.8554 12.1294 36.0429 12.317C36.2304 12.5045 36.4848 12.6099 36.75 12.6099Z" />
<path d="M30 12.6099H32C32.2652 12.6099 32.5196 12.5045 32.7071 12.317C32.8946 12.1294 33 11.8751 33 11.6099C33 11.3446 32.8946 11.0903 32.7071 10.9028C32.5196 10.7152 32.2652 10.6099 32 10.6099H30C29.7348 10.6099 29.4804 10.7152 29.2929 10.9028C29.1054 11.0903 29 11.3446 29 11.6099C29 11.8751 29.1054 12.1294 29.2929 12.317C29.4804 12.5045 29.7348 12.6099 30 12.6099Z" /></g>
<defs>

        <linearGradient id="a" x1="4.51" y1="32" x2="62.79" y2="32" gradientUnits="userSpaceOnUse">
            <stop stop-color="#02fcf8" />
            <stop offset="1" stop-color="#45b05e" />
        </linearGradient>
</defs>
</svg>
