<svg width="64" height="64" fill="none" xmlns="http://www.w3.org/2000/svg">
    <path
        d="M58.28 8c-.1-.12-.53-.55-.66-.66a16.35 16.35 0 0 0-14.78-4.11 17.11 17.11 0 0 0-12.56 10.69L23.63 33.8l-.91-.91a.998.998 0 0 0-1.42 0 1 1 0 0 0 0 1.41l1.35 1.35L6 52.27a5.18 5.18 0 0 0 0 7.35 5.2 5.2 0 0 0 7.35 0L30 43l1.35 1.35a1 1 0 0 0 .71.29.998.998 0 0 0 .71-.29 1 1 0 0 0 0-1.41l-.92-.94 19.88-6.65a17.059 17.059 0 0 0 10.69-12.54A16.35 16.35 0 0 0 58.28 8zm-1 4.42c-.77 4.85-5.92 12.11-9.84 13.87l-.11.05L27.83 38l-.17-.18 11.62-19.46.06-.1c1.76-3.93 9-9.08 13.87-9.85 1-.16 2.46-.18 3.24.61l.18.17c.8.81.78 2.2.61 3.26l.04-.03zm-25.12 2.19a15.1 15.1 0 0 1 11.1-9.42A14.4 14.4 0 0 1 53 6.43h-.1c-5.55.87-13.27 6.38-15.36 10.94l-11.34 19-1-1 6.96-20.76zM12 58.2a3.2 3.2 0 1 1-4.52-4.52l16.59-16.62 4.52 4.53L12 58.2zm48.5-35.8a15.108 15.108 0 0 1-9.41 11.09l-20.82 6.95-1-1 19-11.34c4.56-2.1 10.07-9.79 10.95-15.34v-.06a14.41 14.41 0 0 1 1.25 9.7h.03z"
        fill="url(#a)" />
    <defs>
        <linearGradient id="a" x1="4.51" y1="32" x2="62.79" y2="32" gradientUnits="userSpaceOnUse">
            <stop stop-color="#02fcf8" />
            <stop offset="1" stop-color="#45b05e" />
        </linearGradient>
    </defs>
</svg>